<svg xmlns="http://www.w3.org/2000/svg" xmlns:xlink="http://www.w3.org/1999/xlink" viewBox="0 0 1094.19 463.28"><defs><style>.cls-1,.cls-41,.cls-42,.cls-47{fill:none;}.cls-2{isolation:isolate;}.cls-3{clip-path:url(#clip-path);}.cls-4{fill:#d700f9;}.cls-5{fill:#a500ff;}.cls-10,.cls-12,.cls-14,.cls-16,.cls-19,.cls-20,.cls-21,.cls-22,.cls-24,.cls-27,.cls-28,.cls-29,.cls-33,.cls-34,.cls-35,.cls-36,.cls-37,.cls-38,.cls-39,.cls-40,.cls-43,.cls-44,.cls-45,.cls-46,.cls-5,.cls-6,.cls-9{mix-blend-mode:multiply;}.cls-6,.cls-7{fill:#1318bc;}.cls-7{mix-blend-mode:screen;}.cls-8{fill:#fff;}.cls-10,.cls-13,.cls-27,.cls-9{fill:#070755;}.cls-9{opacity:0.31;}.cls-10{opacity:0.32;}.cls-11,.cls-12,.cls-21,.cls-30,.cls-39,.cls-40,.cls-43{fill:#ffd6da;}.cls-14{fill:#606060;}.cls-15,.cls-16,.cls-38,.cls-44{fill:#595ee5;}.cls-16,.cls-20,.cls-21,.cls-23,.cls-29,.cls-34{opacity:0.5;}.cls-17,.cls-35,.cls-46{fill:#ffe7ef;}.cls-18,.cls-19,.cls-24{fill:#ffba00;}.cls-19,.cls-43,.cls-44{opacity:0.7;}.cls-22{fill:#3b4055;}.cls-22,.cls-39{opacity:0.4;}.cls-25,.cls-29{fill:#f63d7c;}.cls-26{fill:#ff003b;}.cls-30{opacity:0.45;}.cls-31,.cls-37{fill:#2a4b94;}.cls-32,.cls-33,.cls-36{fill:#ff78a9;}.cls-34{fill:#dc4360;}.cls-36,.cls-37{opacity:0.47;}.cls-40{opacity:0.3;}.cls-41,.cls-42,.cls-47{stroke:#fff;stroke-miterlimit:10;}.cls-41{stroke-width:2.49px;}.cls-42,.cls-47{stroke-width:0.41px;}.cls-45{fill:#4d2519;opacity:0.8;}.cls-46{opacity:0.63;}.cls-47{stroke-linecap:round;}</style><clipPath id="clip-path"><path id="SVGID" class="cls-1" d="M691.23,44c-62.7,1.21-121.06,19.57-167.39,13.38-51.66-6.9-102.8-19.25-155-21.65-64.37-3-125.73,32.3-158.16,87.58-73.49,125.25,19.68,285,149.9,319.07,73.07,19.13,149,9.9,222.84,1,35.71-4.31,71.81-9.49,107.75-8.91,54.71.88,121.66,3,159.85-43.37,16-19.35,25.54-43.27,31.29-67.67,19.7-83.55,4.3-209.18-75.9-258.07C773.66,45.34,728.51,43.25,691.23,44Z"/></clipPath></defs><title>Asset 4</title><g class="cls-2"><g id="Layer_2" data-name="Layer 2"><g id="Layer_1-2" data-name="Layer 1"><g class="cls-3"><rect class="cls-4" x="154.07" width="739.78" height="463.28"/><rect class="cls-5" x="229.61" y="385.79" width="664.24" height="77.49"/><ellipse class="cls-6" cx="332.19" cy="400.63" rx="71.64" ry="7.93"/><ellipse class="cls-6" cx="580.59" cy="400.63" rx="71.64" ry="7.93"/><path class="cls-6" d="M503.07,397.36c0,3.26-20.9,5.91-46.68,5.91s-46.67-2.65-46.67-5.91,20.89-5.91,46.67-5.91S503.07,394.09,503.07,397.36Z"/><ellipse class="cls-6" cx="742.99" cy="408.21" rx="66.29" ry="11.71"/><rect class="cls-7" x="285.44" y="236.56" width="520.83" height="55.14"/><rect class="cls-7" x="285.44" y="302.12" width="520.83" height="83.67"/><rect class="cls-7" x="295.28" y="88.16" width="248.28" height="133.07" rx="13.18" ry="13.18"/><path class="cls-8" d="M530.37,89.82a11.54,11.54,0,0,1,11.53,11.52V208.05a11.54,11.54,0,0,1-11.53,11.52H308.46a11.54,11.54,0,0,1-11.52-11.52V101.34a11.54,11.54,0,0,1,11.52-11.52H530.37m0-1.66H308.46a13.18,13.18,0,0,0-13.18,13.18V208.05a13.18,13.18,0,0,0,13.18,13.18H530.37a13.19,13.19,0,0,0,13.19-13.18V101.34a13.19,13.19,0,0,0-13.19-13.18Z"/><rect class="cls-7" x="556.8" y="88.16" width="248.28" height="133.07" rx="13.18" ry="13.18"/><path class="cls-8" d="M791.89,89.82a11.54,11.54,0,0,1,11.53,11.52V208.05a11.54,11.54,0,0,1-11.53,11.52H570a11.54,11.54,0,0,1-11.53-11.52V101.34A11.54,11.54,0,0,1,570,89.82h221.9m0-1.66H570a13.19,13.19,0,0,0-13.19,13.18V208.05A13.19,13.19,0,0,0,570,221.23h221.9a13.18,13.18,0,0,0,13.19-13.18V101.34a13.18,13.18,0,0,0-13.19-13.18Z"/><rect class="cls-5" x="285.44" y="298.39" width="520.83" height="23.2"/><rect class="cls-8" x="276.68" y="291.97" width="537.17" height="10.81"/><path class="cls-9" d="M485.7,328.42a23.07,23.07,0,0,0-9.61-5A5.19,5.19,0,0,0,475,323l.55-.59.6-.65.76-.84.55-.61.74-.85.46-.53.74-.88.36-.43.76-.95.23-.28c.31-.4.6-.78.86-1.15.8-1.09,1.53-2.14,2.22-3.17l.21-.34c.6-.91,1.18-1.81,1.7-2.68l.05-.1a51.84,51.84,0,0,0,2.79-5.29l.06-.16h0q.54-1.2,1-2.34a26,26,0,0,0,1.25-4.57,19.92,19.92,0,0,0,.25-2.08,12.75,12.75,0,0,0-5.94-12,12.08,12.08,0,0,0-11.34-1.41l-.35.1-2.29,0a9.08,9.08,0,0,0,.4-1.92,92.65,92.65,0,0,0-.37-15.58c.11,0,.2.12.31.17a40.73,40.73,0,0,0,5.35,1.92,15.6,15.6,0,0,0,5.15.91h.21v0h0c5.9.21,7.56-2.85,7.56-2.85l0-.09c.61-.81,1.78-3.46,1.3-11.6-.56-9.6-12.49-43.27-12.49-43.27l-2.77.66c-1.31-3.06-2.3-5.33-2.73-6.3-.66-2,.1-4.49,0-7.68-.14-4.1-1.6-6.46-3.14-7.9a28.26,28.26,0,0,0,.37-6.46,17,17,0,0,0-2-6.76,21.17,21.17,0,0,0-17.62-10.87c-38.07-2.16-39.91,60.65-39.32,67A10.63,10.63,0,0,0,413,235.5c-2.63,5-5.1,10.13-6.95,14.57s-3.2,8.34-3.28,10.9a3.52,3.52,0,0,0,.93,2.45c.2.21,4.43,5.94,7.2,8.3,2,1.66,4,3.26,5.9,4.74l-.67-.32h0a71.53,71.53,0,0,0-9.38-3.85l-.08,0a37.55,37.55,0,0,0-7.79-1.7l-.21,0c-.54-.05-1.06-.08-1.57-.09h-.31a17.5,17.5,0,0,0-4.29.45l-.24.05c-.38.1-.75.21-1.11.34l-.4.15c-.34.14-.68.28-1,.44l-.27.15a10.69,10.69,0,0,0-4.36,4.33c-4.73,8.53.4,18.29,19,28.59,3.49,1.93,8.06,4.26,13.21,6.73l2.62,1.25c1.77.83,3.61,1.68,5.48,2.53,3.85,1.76,7.87,3.51,11.87,5.19h0L440.5,322l-.93,1.57-.24.42q-1.41,2.41-2.8,4.85c-.07.14-.15.27-.22.4-.39.69-.78,1.37-1.16,2.06l-.27.47-1.33,2.39c-.33.57-13.55,22.13-15.16,28a1.82,1.82,0,0,1-.23.15,2.51,2.51,0,0,0-.26,1.56,27.4,27.4,0,0,0-3.72,8.8c-1.79,7.36-.76,13.83,2.31,14.45s7-4.85,8.8-12.21a27.54,27.54,0,0,0,.82-8.39,7.07,7.07,0,0,0,1-.72l1.2-1c4.66-3.47,10.77-8.46,17.24-14.06l.05,0c.63-.54,1.26-1.08,1.89-1.64l.12-.11,1.84-1.6.18-.17,1.77-1.57.28-.25,1.69-1.51.33-.3,1.63-1.47.43-.39,1.52-1.4.5-.46,1.43-1.32.57-.53,1.35-1.26.58-.55L463,335l.68-.65,1.16-1.11.73-.71,1.07-1,.46-.45a22.68,22.68,0,0,0,6.53.65,28.45,28.45,0,0,0,5.41,5.67c5.78,4.67,11.95,6.46,13.78,4S491.48,333.08,485.7,328.42ZM469.76,211.05a20.38,20.38,0,0,1-2.26-4c-1.07-2.72-.67-5.84.13-9.26h.05a.82.82,0,0,0,.38-.15,5.4,5.4,0,0,0,.54,1.88c.52,1.07.51,3.24.64,4.58l0,.06,1.06,6.75Zm-1.14-17.22.3-1.15C469.47,193.22,469,193.37,468.62,193.83ZM426,245.23l0,0v0h0c-1.29,6.91-2.58,14.15-3.09,20.37l-.12.43a61.79,61.79,0,0,0-6.57-9.86A112,112,0,0,0,426,245.23Z"/><rect class="cls-7" x="845.92" y="88.16" width="248.28" height="133.07" rx="13.18" ry="13.18"/><path class="cls-8" d="M1081,89.82a11.54,11.54,0,0,1,11.52,11.52V208.05A11.54,11.54,0,0,1,1081,219.57H859.1a11.54,11.54,0,0,1-11.53-11.52V101.34A11.54,11.54,0,0,1,859.1,89.82H1081m0-1.66H859.1a13.18,13.18,0,0,0-13.18,13.18V208.05a13.18,13.18,0,0,0,13.18,13.18H1081a13.18,13.18,0,0,0,13.18-13.18V101.34A13.18,13.18,0,0,0,1081,88.16Z"/><rect class="cls-7" x="850.28" y="236.56" width="74.45" height="55.14"/><rect class="cls-7" x="850.28" y="302.12" width="74.45" height="83.67"/><rect class="cls-5" x="850.28" y="298.39" width="74.45" height="23.2"/><rect class="cls-7" y="88.16" width="248.28" height="133.07" rx="13.18" ry="13.18" transform="translate(248.28 309.39) rotate(180)"/><path class="cls-8" d="M235.09,89.82a11.54,11.54,0,0,1,11.53,11.52V208.05a11.54,11.54,0,0,1-11.53,11.52H13.18A11.54,11.54,0,0,1,1.66,208.05V101.34A11.54,11.54,0,0,1,13.18,89.82H235.09m0-1.66H13.18A13.18,13.18,0,0,0,0,101.34V208.05a13.18,13.18,0,0,0,13.18,13.18H235.09a13.19,13.19,0,0,0,13.19-13.18V101.34a13.19,13.19,0,0,0-13.19-13.18Z"/><rect class="cls-7" x="169.46" y="236.56" width="74.45" height="55.14" transform="translate(413.37 528.26) rotate(180)"/><rect class="cls-7" x="169.46" y="302.12" width="74.45" height="83.67" transform="translate(413.37 687.91) rotate(180)"/><rect class="cls-5" x="169.46" y="298.39" width="74.45" height="23.2" transform="translate(413.37 619.97) rotate(180)"/><rect class="cls-8" x="180.94" y="291.97" width="71.93" height="10.81"/><polyline class="cls-8" points="901.31 302.78 842.36 302.78 842.36 291.97 901.31 291.97"/><path class="cls-10" d="M409,88.72h-1.14c1.83-4.65,4.73-10.78,2.05-15.15-1.55-2.52-10.13-4.63-11.45-3a10.74,10.74,0,0,0-1.28,3.55c-.76-.68-1.15.7-1.25,1.31a19.81,19.81,0,0,0,0,4.67,8.43,8.43,0,0,0,.87,3.23,5.41,5.41,0,0,0,.23.68c.53,1.32,1.18,3,1.78,4.67H397L384.13,124a18.38,18.38,0,0,1-7.08,9l-18.29,12.23a.58.58,0,0,0-.42-.24c-.87,0-5.13.08-10.66.19l.1-.13-2.4.07a3.86,3.86,0,0,1-3.93-3.33l.41-.1c8.81-2.42,12.89-18.63,12.89-18.63s4.07-12.25-1.71-18.47c.6-.26,1.2-.54,1.76-.84a4.77,4.77,0,0,0,1-.73l.12-.11a4.54,4.54,0,0,0,.66-.87l.09-.16a4.52,4.52,0,0,0,.38-1l0-.15a4.8,4.8,0,0,0,.11-1.07h0a4.58,4.58,0,0,0-.17-1.1s0-.06,0-.08a4.44,4.44,0,0,0-.43-1l-.06-.11a4.29,4.29,0,0,0-.68-.86.6.6,0,0,0-.08-.08,4.45,4.45,0,0,0-.95-.69h0a4.81,4.81,0,0,0-1.37-.47c-3.52-.63-8.09-2.25-13.52-2.09-13.36.4-21.85,4.29-24.4,13.22-.06.21-.1.41-.15.62s-.17.28-.24.43a22.66,22.66,0,0,0-1.6,11.83,8.92,8.92,0,0,0,.88,5,38,38,0,0,0,3.81,9.48,16.84,16.84,0,0,0,11.27,8.09l-.2,1.27a3.85,3.85,0,0,1-3.22,2.47l-4.59.1c-.12,0-.22,0-.34,0-1.9-.4-7.21-.78-11.63,5.85-5.49,8.23-21.41,43.21-17.91,55.21a6.41,6.41,0,0,0,1,2.06l6.79,15-2.51,16.39s1.15.62,3,1.51a59,59,0,0,0-1.66,9.87c-1.25,13.42,3.54,42.2,6.85,55.91.08.34.17.63.25.95h0c-.19.41-.39.86-.59,1.36l-.11.24c-.21.52-.44,1.07-.66,1.66v0c-.22.58-.44,1.2-.65,1.86-.06.16-.11.32-.16.48-.16.51-.32,1-.48,1.56l-.18.63c-.18.66-.36,1.33-.52,2,0,.08,0,.15-.05.22-.17.76-.33,1.54-.47,2.34,0,.24-.08.48-.11.72-.1.62-.19,1.24-.26,1.87l-.09.77c-.09.87-.16,1.75-.19,2.65-.3,8.35,4.33,66.21,4.33,66.21h1.51c-1.26,1.46,2.17,6.5,6.89,9.58,5.2,3.4,10.65,4.39,11.89,2,2.79-5.3-7.13-10.78-11.94-11.62H316l7.23-80.35c1.83-6.85,3.65-14.83,5.22-22.78v0q.39-2,.75-3.9c0-.09,0-.17,0-.26.23-1.22.45-2.43.67-3.63l.09-.53q.3-1.67.57-3.3c.05-.28.09-.56.14-.84s.05-.32.08-.47l10.06,27.26c-.14.22-.27.46-.4.69s-.23.38-.34.58c-.27.47-.53,1-.79,1.46l-.16.3c-.3.61-.59,1.23-.87,1.87-.08.18-.16.37-.23.55-.2.47-.39.94-.57,1.42-.09.24-.17.49-.26.73-.15.45-.3.9-.44,1.36-.08.25-.15.51-.22.77-.14.49-.25,1-.36,1.48-.05.23-.11.47-.16.71-.14.73-.26,1.48-.35,2.23s-.19,1.8-.3,2.91-.23,2.37-.35,3.74c-.67,7.52-1.52,18.49-2.31,29-.86,11.51-1.64,22.51-2,28-.06.92-.12,1.68-.16,2.26-.06.87-.09,1.35-.09,1.35l1.61.19v-.08l.78.06c-.66,2.36.68,6.7,3.55,10.87,3.58,5.2,8.17,8.14,10.25,6.58s.88-7-2.69-12.23a23.72,23.72,0,0,0-4.22-4.74l2.77.2,23.82-84.48h0l-10.21-53.39a8.2,8.2,0,0,0,5.48-7.12c1.51-20.43-.23-65-.35-68.05L389.8,147c.35-.34.7-.68,1-1a21.37,21.37,0,0,0,4.95-8.75l13.85-48.5H409Z"/><path class="cls-11" d="M394.3,93.73s-2.2-6.25-3.6-9.68.12-11.77,1.44-13.44,9.9.44,11.45,3c3.37,5.5-2.12,13.82-3.14,18.41"/><path class="cls-11" d="M389.61,75.47c.14-.91.93-3.56,2.66,1.56s1.14,8.17,1.14,8.17-3.26.53-3.8-5.06A18.78,18.78,0,0,1,389.61,75.47Z"/><path class="cls-12" d="M393.18,78.55a4.08,4.08,0,0,1,2.37,2,5,5,0,0,1,.65,3.84C396,85.57,399.25,79.9,393.18,78.55Z"/><path class="cls-13" d="M308.78,107.49c-2.85,5.84-2.5,16.48,3.09,26.34s18,9.44,23.65,7.89c8.82-2.42,12.89-18.63,12.89-18.63s4.53-13.55-2.65-19.38C338.75,98,315,94.8,308.78,107.49Z"/><path class="cls-14" d="M310,108.33c-2.67,5.46-2.35,15.43,2.89,24.66s16.87,8.83,22.14,7.38c8.25-2.26,12.07-17.44,12.07-17.44s4.23-12.68-2.49-18.14C338.09,99.46,315.84,96.45,310,108.33Z"/><path class="cls-8" d="M319,404.76c-1.24,2.35-6.68,1.36-11.88-2s-8.85-9.16-6.39-9.92c1.44-.44,2.79.15,5.32.22C310.27,393.14,322,399.06,319,404.76Z"/><path class="cls-15" d="M312.16,227.78c-10-.39-18.34,2.11-20.36,23.88-1.24,13.42,3.54,42.2,6.86,55.91.08.34.16.63.25.94h0c-.19.41-.39.86-.6,1.36l-.1.24c-.22.52-.44,1.07-.67,1.66v0q-.33.87-.66,1.86c-.05.16-.1.32-.16.48-.16.51-.32,1-.47,1.56-.07.21-.13.42-.19.63-.18.66-.35,1.33-.51,2l-.06.22c-.17.76-.32,1.54-.46,2.34,0,.24-.08.48-.12.72-.1.62-.18,1.24-.26,1.87,0,.26-.06.51-.08.77-.09.87-.16,1.75-.19,2.65-.31,8.35,4.33,66.21,4.33,66.21h11l7.24-80.35c4.88-18.27,9.64-44.62,10.07-56.63C327.62,239.06,322.17,228.18,312.16,227.78Z"/><path class="cls-8" d="M337.67,391.14c3.58,5.19,4.79,10.67,2.7,12.23s-6.68-1.38-10.25-6.58-4.79-10.68-2.7-12.24S334.09,385.94,337.67,391.14Z"/><path class="cls-15" d="M327,256.16c-.44,12.19-5.34,39.21-10.3,57.49-2.49,9.18-7.51,2.53-9.46,2.38-3.11-.24-6.33.83-8.57-8.46-3.32-13.71-8.1-42.49-6.86-55.91,2-21.77,10.36-24.27,20.36-23.88S327.62,239.06,327,256.16Z"/><path class="cls-16" d="M300.05,328.18c.1-.9.22-1.78.37-2.65,0-.26.09-.52.14-.77.11-.63.24-1.25.38-1.86.05-.24.1-.48.16-.72.19-.79.4-1.57.62-2.32a1.87,1.87,0,0,1,.07-.22c.2-.69.42-1.35.65-2,.07-.21.14-.42.22-.62.19-.53.38-1,.58-1.54.06-.16.12-.32.19-.48.26-.64.52-1.25.78-1.82h0c.27-.59.52-1.12.77-1.63l.12-.24q.36-.72.69-1.32h0c-.07-.32-.13-.62-.19-1-2.41-14-5.29-43.31-3.17-56.73,2.71-17.07,8.52-21.93,15.71-22.69a12.21,12.21,0,0,0-6-1.81c-10-.39-18.34,2.11-20.36,23.88-1.24,13.42,3.54,42.2,6.86,55.91.08.34.16.63.25.94h0c-.19.41-.39.86-.6,1.36l-.1.24c-.22.52-.44,1.07-.67,1.66v0q-.33.87-.66,1.86c-.05.16-.1.32-.16.48-.16.51-.32,1-.47,1.56-.07.21-.13.42-.19.63-.18.66-.35,1.33-.51,2l-.06.22c-.17.76-.32,1.54-.46,2.34,0,.24-.08.48-.12.72-.1.62-.18,1.24-.26,1.87,0,.26-.06.51-.08.77-.09.87-.16,1.75-.19,2.65-.31,8.35,4.33,66.21,4.33,66.21H300C299.87,383,299.3,335.65,300.05,328.18Z"/><polygon class="cls-15" points="317.59 258.34 336.79 310.38 355.62 307.68 360.05 302.12 347.13 234.55 322.02 229.29 317.59 258.34"/><path class="cls-15" d="M341.59,295.37s-10.71,10-12.19,23.09-5.24,67.29-5.24,67.29l12.07.85,23.82-84.48Z"/><path class="cls-17" d="M311.21,244.7s6.27,5.32,6.33,7.3c0,0-1.67,4.14-11.1,3.74l-1.23-8.67Z"/><path class="cls-18" d="M307.24,152.43a8.22,8.22,0,0,1,7.89-6.67c11.64-.25,34.71-.75,36.87-.74,2.91,0,2.95,28.36,2.95,28.36s1.93,47.06.36,68.23a8.2,8.2,0,0,1-7.52,7.58c-11.37.92-34.82,1.63-51.7-5.74a8.17,8.17,0,0,1-4.67-9Z"/><path class="cls-19" d="M312.64,248.07c1.92.13,21.87,2.39,21.87,2.39-11.72-3.6-29.72-43.63-22.61-78.84L298.17,190l-7.68,50.31S303.66,247.46,312.64,248.07Z"/><path class="cls-18" d="M315.52,146s-6.87-2.57-12.35,5.66-21.42,43.21-17.91,55.21,15.16-15.6,24.58-29.7A39.84,39.84,0,0,0,315.52,146Z"/><path class="cls-18" d="M299.44,194.55,315,247.13s-2.17,3.9-9.86,3.62l-19.53-43.08Z"/><path class="cls-16" d="M306.44,264.7s2.88,10.29,12.16-1.78c0,0-2.12,7.5-7.22,8.28S306.44,264.7,306.44,264.7Z"/><g class="cls-20"><path class="cls-16" d="M336.91,300.81l-9-48.17L324.48,277l10.07,27.31a35.36,35.36,0,0,0-5.15,14.15c-1.47,13.09-5.24,67.29-5.24,67.29l1.61.19c.37-3.76,5.39-54.29,7.17-66.84a34.82,34.82,0,0,1,5.16-13.36l-1.19-4.93Z"/><polygon class="cls-16" points="359.94 302.08 360.05 302.13 360.05 302.12 359.94 302.08"/></g><path class="cls-11" d="M335.08,141.68l-.61-5.94a21.51,21.51,0,0,1-3.87.37,20.86,20.86,0,0,1-6.55-1.06l-.87,7.24a3.88,3.88,0,0,1-3.73,3.41l-1.29,0a17.58,17.58,0,0,0,11.4,4.38c8.57,0,11.88-5,11.88-5l-2.4.07A3.88,3.88,0,0,1,335.08,141.68Z"/><path class="cls-12" d="M330.74,136.25a16.85,16.85,0,0,1-6.51-1.31l-1.39,8.95c1.16.23,3.76-3.76,12.21-5.31l-.45-2.74A18.12,18.12,0,0,1,330.74,136.25Z"/><path class="cls-18" d="M349.09,147.49,370.72,133a18.36,18.36,0,0,0,7.07-9l12.83-35.3h12.67l-13.84,48.5a21.45,21.45,0,0,1-6,9.78l-28.64,26.69Z"/><path class="cls-11" d="M348.45,119.55c-.24,11-8.23,19.67-19.21,19.44s-18.58-9.33-18.35-20.3S319.13,99,330.1,99.25,348.68,108.58,348.45,119.55Z"/><path class="cls-21" d="M335.67,135.58c-11-.24-17.32-9.45-17.09-20.42.14-6.42,2.52-12,6.66-15.5-8.08,2-14.18,9.52-14.38,18.77-.23,11,7.38,20.19,18.35,20.42a18.19,18.19,0,0,0,11.87-3.93A19.11,19.11,0,0,1,335.67,135.58Z"/><path class="cls-22" d="M312.88,118.28s-3.6-4.27-5.25-.13,1.14,8.27,3,8.53,3-2.06,3-2.06"/><path class="cls-11" d="M312.86,117.78s-3.6-4.27-5.25-.12,1.15,8.27,3,8.52,3-2.05,3-2.05"/><path class="cls-21" d="M312.86,117.78s-3.6-4.27-5.25-.12,1.15,8.27,3,8.52,3-2.05,3-2.05"/><path class="cls-13" d="M348.47,103.78a4.54,4.54,0,0,0-1.37-8.47c-3.52-.63-8.1-2.25-13.52-2.09-13.37.4-21.86,4.29-24.41,13.22a21.85,21.85,0,0,0-.33,10.19c.73,4,5.42,10.85,5.72,6.77,1.06-14.47,9.81-14.32,15-14.86C336,107.89,343.18,106.61,348.47,103.78Z"/><path class="cls-14" d="M348.47,95.78a4.44,4.44,0,0,1-2,4.64c-5,3.28-12,5.19-18.37,6.41-5.17,1-13.9,1.62-13.68,16.13,0,2.16-.08,2.67.09.44,1.06-14.47,9.81-14.32,15-14.86,6.43-.65,13.58-1.93,18.87-4.76A4.55,4.55,0,0,0,348.47,95.78Z"/><g class="cls-23"><polygon class="cls-18" points="349.15 147.45 349.09 147.49 349.33 148.58 349.15 147.45"/><path class="cls-24" d="M386.52,135.49l-32.07,21.74.37,16.46L383.46,147a21.45,21.45,0,0,0,6-9.78l13.84-48.5h-.61Z"/></g><path class="cls-9" d="M659.88,202.15c-12.42-1.09-29.71-15.13-33.87-23.3s-9.64-10-19.79-11.36-17.49-1.71-26.07-10.44c-16.49-16.79-42-11.24-43.81,4.35a.22.22,0,0,0,0,.15c-5.14,3-7.36,10.71-7.27,19a6.39,6.39,0,0,0-.61,2.8,6.92,6.92,0,0,0,1.26,4.47c1,5.75,3,11.19,5.79,14.92a50.83,50.83,0,0,1,3.65,5.81c-.88,0-1.68,0-2.41,0l-.25-.15a28.45,28.45,0,0,0-8.1,1.85l0,0a15.11,15.11,0,0,0-4.71,2.8,11.12,11.12,0,0,0-1.11,1.06c-3.93,4.29-10.07,20.71-10.07,20.71l1.29.41c-1.07,3.76-2,8.1-3,13.35a7.22,7.22,0,0,0,1.47,5.8l11.35,14.15a5.25,5.25,0,0,0-1.57,1.18c-5.5,6.49-11,15.73-11,22.75,0,5.89,3.31,8.22,7.35,11.31.31,1,.65,2.08,1,3.18,6.92,19.37,16.26,45,16.26,45a116.25,116.25,0,0,1,6.36,22.63c.11.74.21,1.58.3,2.49l-.11-.49s-.48,20.35,6.48,23.12a4.18,4.18,0,0,0,2.59,1h.06c3.56.29,5.66-.81,6.86-2.84,2.34-3.61,2-10.67.61-21.26,0,0,0,1.1-.05,2.74-.2-2.26-.38-4.54-.42-6.76-.11-6.72,1.35-14.15,3.24-21.51.16-.64.35-1.34.55-2.06.07-.24.14-.5.21-.75.14-.5.28-1,.44-1.52.09-.34.2-.69.3-1s.28-1,.42-1.45.27-.88.4-1.33.27-.91.41-1.38c.27-.9.55-1.82.83-2.77l.27-.88.68-2.3.24-.8.8-2.77c0-.13.08-.26.11-.39.32-1.08.63-2.18.93-3.29v0h0a173,173,0,0,0,5.16-23.85c4.61-1.57,7.24-5,7.6-13.54.29-6.88-4.44-13.66-8.52-18.2a6.38,6.38,0,0,0,1.43-2.48l3.87-4.83a42.15,42.15,0,0,0,7.38.57c10.68-.17,12.5,8,13.8,12.65s22.3,21.12,49,9.38C724.21,254.4,681.19,204,659.88,202.15ZM549.22,366.44c-.1-.47-.19-1-.28-1.44a91.31,91.31,0,0,1-1.18-11.36c0-.24,0-.48,0-.73-.05-1.21-.1-2.44-.13-3.67-.11-4.85.17-11.85.26-19.61.86,11.72,1.55,20.9,1.55,20.9a123.67,123.67,0,0,1,.44,18.63c0-.18-.1-.35-.14-.53Q549.44,367.55,549.22,366.44Zm-28.77-119a89.07,89.07,0,0,0,3.57-8.58c.92.25,1.77.44,1.77.44l.12-.22h0l2.53-4.56v1.86l-.72,10.5c-.08.53-.16,1.06-.26,1.58H525a3.39,3.39,0,0,0-3.57,3.7l.06.34-1.08-2.21A3.15,3.15,0,0,1,520.45,247.46Z"/><path class="cls-18" d="M530,159.82c1.81-15.6,27.31-21.15,43.8-4.35,8.58,8.73,15.92,9.14,26.08,10.44s15.62,3.18,19.78,11.36,21.46,22.21,33.87,23.29c21.32,1.87,64.34,52.26-12,85.89-26.64,11.74-47.64-4.68-48.94-9.37s-3.13-12.82-13.8-12.66-21.65-4-25.27-10.74S537.4,212,529.2,201.18s-9.39-35.93,1.21-41.43C536.35,156.66,529.82,161.42,530,159.82Z"/><path class="cls-24" d="M556.92,174.45a25,25,0,0,0,12.14,15.77c10.07,5.42,20,23.35,32.38,28.07,19.5,7.45,24,31.5,15.2,44.67s-35.86,2.37-44.86-17S533,212.24,528.93,195.84c-4.33-17.62-1.55-29.72,2.14-31.58S548,160.77,556.92,174.45Z"/><path class="cls-11" d="M537.86,204.5l.95-6.56h9.66l1,6.71a3,3,0,0,0,2.92,2.53c5.43,0,9.67.3,9.67,1.9,0,2.43-10,9.36-18.83,9.36s-17-7.48-17-9.92c0-1.59,3.61-1.64,8.59-1.49A3,3,0,0,0,537.86,204.5Z"/><path class="cls-12" d="M548.43,198l.72,4.93a11.11,11.11,0,0,1-5.26,1.52,11.87,11.87,0,0,1-6-1.82l.69-4.78a17.78,17.78,0,0,0,9.83.15Z"/><path class="cls-11" d="M560.37,183.3a17,17,0,0,1-34.09,0c0-9.41,7.63-23.4,17-23.4S560.37,173.89,560.37,183.3Z"/><path class="cls-21" d="M543.55,197.25a17,17,0,0,1-17-16.95,21.11,21.11,0,0,0-.24,3,17,17,0,0,0,34.09,0c0-.12,0-.24,0-.36A17,17,0,0,1,543.55,197.25Z"/><path class="cls-24" d="M559,178.84s3.38-4,4.93-.12-1.08,7.76-2.83,8-2.77-1.93-2.77-1.93"/><path class="cls-11" d="M559,178.37s3.39-4,4.93-.12-1.07,7.77-2.82,8-2.78-1.93-2.78-1.93"/><path class="cls-25" d="M518.2,259.83a72.34,72.34,0,0,1,2.13-9.35c2.15-7.46,1.83-18.31,1.68-22.34l-2.43,9.38-13.42-4.27s6.15-16.43,10.07-20.71c4.78-5.23,14-5.69,14-5.69l9.26,5.69a8.58,8.58,0,0,0,2.66,1.13,8.89,8.89,0,0,0,3.17.11,8.74,8.74,0,0,0,3.39-1.31l8.56-5.36s9.18.66,13.83,6c3.81,4.39,9.53,21,9.53,21L567.07,238l-2.85-10.1c-.25,4-.19,15.52,1.77,23A69.58,69.58,0,0,1,568,261c.64,2.89.69,5.49-.37,7.54a6.19,6.19,0,0,1-1.6,2.75c-4.24,3.95-13,1.57-21.84,1.06-9.62.6-19.78,2.95-24.34-1.53a6.67,6.67,0,0,1-1.7-3.51C517.27,265.22,517.46,262.66,518.2,259.83Z"/><path class="cls-13" d="M560.4,265.64s14.73,11.74,14.23,23.72-5.49,14-14.23,14.74-40.92,4.24-46,0-9.74-6.19-9.74-13.21,5.5-16.26,11-22.75S560.4,265.64,560.4,265.64Z"/><path class="cls-26" d="M523.39,275.84l10.75,29.76h12.23L551.5,275S536.62,279.81,523.39,275.84Z"/><path class="cls-13" d="M524.4,278.37l9.74,27.23h12.23l5.69-27a2.43,2.43,0,0,0-2.8-2.9c-4.92.86-14.16,2-22.78.23A1.82,1.82,0,0,0,524.4,278.37Z"/><path class="cls-27" d="M524.4,278.37l9.74,27.23h12.23l5.69-27a2.43,2.43,0,0,0-2.8-2.9c-4.92.86-14.16,2-22.78.23A1.82,1.82,0,0,0,524.4,278.37Z"/><path class="cls-11" d="M519.41,276.42c-7.17,1.85-13.23,9.59-6.31,29s16.26,45,16.26,45a116.82,116.82,0,0,1,6.35,22.64c1.2,7.86.64,26.8,9.1,25.16,12.18-2.36,3-16.14-.85-29-1.93-6.44-2.53-14-2.7-21.58C540.81,327.91,546.49,269.4,519.41,276.42Z"/><path class="cls-25" d="M545.25,373.1s5.5,16.66-.49,18c-5.23,1.16-8.85-16-8.85-16s-.62,25.51,9.29,23.3C554.38,396.31,552.2,388.33,545.25,373.1Z"/><g class="cls-28"><path class="cls-11" d="M541.26,347.66a105.17,105.17,0,0,0,1.35,15.76,102.33,102.33,0,0,1-2.18-16.09c-1.31-18.63-1.07-71.26-23.35-70.07l3.85-1.29C546.72,272.49,540.81,327.91,541.26,347.66Z"/></g><path class="cls-12" d="M542.88,364.85c.3,1.51.65,3,1.08,4.39,2.67,8.92,7.92,18.31,6.78,24l-1.61,3a8.45,8.45,0,0,1-4.32,2c-4.35.85-6.31-3.75-7.35-9.49C540,382.42,541.94,371,542.88,364.85Z"/><path class="cls-11" d="M553.49,275c-7.41-.15-15.34,5.66-13.91,26.18S543.07,349,543.07,349a117.18,117.18,0,0,1,0,23.51c-1,7.9-6.63,26,2,26.69,12.36,1,7.23-14.74,7-28.13-.12-6.72,1.35-14.14,3.23-21.5C560.18,330.38,581.45,275.58,553.49,275Z"/><g class="cls-28"><path class="cls-11" d="M550.31,371.08A81.85,81.85,0,0,1,554,349.76c1.69-5.46,4.9-13.82,7.93-23-2.52,9.08-5.22,17.34-6.61,22.76-1.88,7.36-3.35,14.78-3.23,21.5.23,13.39,5.36,29.14-7,28.13a5.21,5.21,0,0,1-1.25-.27C556.46,398.31,549.91,383.43,550.31,371.08Z"/></g><path class="cls-25" d="M552.5,375s.32,17.55-5.79,17c-5.34-.45-4.1-16.68-4.1-16.68s-7,23.28,2.36,23.75S554.63,391.65,552.5,375Z"/><path class="cls-11" d="M571.78,246c-3.64-7.57-11.86-33.65-11.86-33.65s3.59-4.53,7.06-.51c7.53,8.75,11.23,16.13,14.63,34.52a8.71,8.71,0,0,1-1.78,7L563.32,274s-3.57-1.68-2.66-3.65a177.47,177.47,0,0,1,10.9-20.53A3.91,3.91,0,0,0,571.78,246Z"/><path class="cls-11" d="M514.11,245.88c3.48-6.61,12.16-33.58,12.16-33.58s-3.6-4.53-7.06-.51c-7.63,8.86-11.33,16.32-14.76,35.21a7.22,7.22,0,0,0,1.46,5.81L522.86,274s4.52-1.18,3.32-3c-4.55-6.85-10.11-18.1-12.11-22.24A3.16,3.16,0,0,1,514.11,245.88Z"/><path class="cls-25" d="M571.06,213.12c3.81,4.39,9.53,21,9.53,21L567.07,238l-4.17-8.77-9.37-15.94,10.83-4.55A15.25,15.25,0,0,1,571.06,213.12Z"/><path class="cls-25" d="M519.58,237.52l-13.42-4.27s6.15-16.43,10.07-20.71a15.05,15.05,0,0,1,5.82-3.87l10.9,6.7-9.06,14.38Z"/><path class="cls-18" d="M522.8,177.76s4-1.1,5.35,2.23c0,0,0-11.55,7.06-15.65l-5.63-2.16S522.8,165.77,522.8,177.76Z"/><path class="cls-24" d="M527.7,179.81s-3.08-4.25-4.91-.48.51,7.82,2.24,8.19,2.91-1.72,2.91-1.72"/><path class="cls-11" d="M527.72,179.34s-3.08-4.24-4.91-.47.51,7.82,2.24,8.19,2.91-1.73,2.91-1.73"/><path class="cls-18" d="M531.07,159.75s-1.77,7.89,17.41,11.75c9.84,2,5.85,12.39,27.57,21.18,0,0-9.74-14.57-12.29-21.2C557.36,154.81,537.75,143.69,531.07,159.75Z"/><path class="cls-18" d="M530.41,159.09S530,167,549.15,170.84c9.84,2,5.84,13.71,27.56,22.51,0,0-3.33-21.2-5.88-27.84C564.43,148.85,537.09,143,530.41,159.09Z"/><path class="cls-24" d="M538.63,152.34s18.34-4.23,24.28,5.53,10.43,12.34,18.38,12.62c-5.79-.21-10.25-6.45-13.46-10.57s-6.66-8-11.66-9.68C550.38,148.34,543.93,149.59,538.63,152.34Z"/><path class="cls-24" d="M564.42,172.14a24.28,24.28,0,0,0,14.86,12.94c11.24,3.62,15.21,1.73,20.17,10.28s4.48,9,14.22,13.44c17.76,8.11,14.38,21.77,12.4,36.78,0,0,17.23-27.74-10.09-40.75-9.7-4.63-11.23-8.52-14.54-13.82s-11.47-8.29-18.8-8.53C573.15,182.16,565.77,176.41,564.42,172.14Z"/><path class="cls-29" d="M562,224.63a71,71,0,0,1-3.59,25.08c-.54,1.67,6.89-1.27,6.89-1.27l-1.24-14.33,0-2.53,3,6.42s4.77-1,3.9-1.49C565.8,233.87,562,224.63,562,224.63Z"/><path class="cls-29" d="M524.5,224.37a71,71,0,0,0,3.59,25.08c.54,1.66-6.89-1.27-6.89-1.27l1-14.33,0-1.08-2.75,5s-4.76-1-3.89-1.48C520.73,233.6,524.5,224.37,524.5,224.37Z"/><path class="cls-8" d="M518.53,272.43h47l3.43-21.84a3.37,3.37,0,0,0-3.56-3.69H518.66a3.37,3.37,0,0,0-3.56,3.69Z"/><rect class="cls-8" x="517.08" y="272.23" width="49.98" height="2.78" rx="0.67" ry="0.67" transform="translate(1084.14 547.25) rotate(180)"/><path class="cls-30" d="M566.17,268.08l-.65,4.14h-47l-2.91-18.55c5.63,4.42,18.36,12.43,37.95,13.61Z"/><path class="cls-30" d="M390.06,71a.52.52,0,0,0,.28.15c.3,0,.46-.46.72-.65a1.14,1.14,0,0,1,1-.16,2.2,2.2,0,0,1,1,.66.92.92,0,0,0,.31.28c.4.18.55-.37.81-.53a1.28,1.28,0,0,1,1.06-.17,2.71,2.71,0,0,1,.83.46c.22.18.49.51.81.4s.41-.5.67-.66a1.27,1.27,0,0,1,1.21,0,3.74,3.74,0,0,1,1.32,1.16,4.51,4.51,0,0,0-1.1,2.73c-.29,2.88-3.48,2.5-3.63,1-.94,1.47-3.11,1-3.23-.18-.94,1.47-3.11,1-3.24-.18-1.08,1.7-3.83.81-3.13-.79a6.78,6.78,0,0,0,.45-1.85,7.89,7.89,0,0,1,1-1.86C388.05,69.74,389.28,70.25,390.06,71Z"/><path class="cls-11" d="M390.06,69.71a.52.52,0,0,0,.28.15c.3,0,.46-.47.72-.65a1.17,1.17,0,0,1,1-.17,2.3,2.3,0,0,1,1,.67.92.92,0,0,0,.31.28c.4.18.55-.37.81-.54a1.32,1.32,0,0,1,1.06-.16,2.51,2.51,0,0,1,.83.46c.22.17.49.51.81.39s.41-.5.67-.65a1.27,1.27,0,0,1,1.21-.06,3.77,3.77,0,0,1,1.32,1.17,4.51,4.51,0,0,0-1.1,2.73c-.29,2.88-3.48,2.49-3.63,1-.94,1.47-3.11,1-3.23-.18-.94,1.47-3.11,1-3.24-.18-1.08,1.7-3.83.81-3.13-.8a6.62,6.62,0,0,0,.45-1.84,8.14,8.14,0,0,1,1-1.87C388.05,68.47,389.28,69,390.06,69.71Z"/><path class="cls-18" d="M420.54,368.57c-1.79,7.37-5.73,12.83-8.8,12.21s-4.1-7.09-2.31-14.45,5.73-12.83,8.8-12.21S422.33,361.21,420.54,368.57Z"/><path class="cls-18" d="M481,322.08c5.78,4.67,9,10.45,7.15,12.91s-8,.67-13.78-4-9-10.45-7.15-12.91S475.17,317.41,481,322.08Z"/><path class="cls-25" d="M446,157.29a21.1,21.1,0,0,1,17.61,10.87,16.84,16.84,0,0,1,2,6.76c.72,10.05-5.46,19.14-2.85,25.8s14,15.6,12.09,23.6-15.27,15.36-23.57,15.62-18.41,2-28.66-2-15.31-6.75-15.94-13.59C406.07,217.94,407.9,155.13,446,157.29Z"/><path class="cls-29" d="M434.62,170.33s-15.32,23.93-16.93,31.07-6.8,16.51-1.58,23.89c3.36,4.75,29.26,20.63,40.39,10s8.71-12.4,6.24-20.62-5.17-10.8-4.39-17-1.48-12.58-1.19-18.6S434.62,170.33,434.62,170.33Z"/><path class="cls-31" d="M394.12,271.91s40,1.55,60.22,2.68,20.38-1.81,23.39,4.54-21.39,37.59-41,31.95S394.12,271.91,394.12,271.91Z"/><path class="cls-32" d="M394.12,271.91s40,1.55,60.22,2.68,20.38-1.81,23.39,4.54-21.39,37.59-41,31.95S394.12,271.91,394.12,271.91Z"/><path class="cls-33" d="M435,287.18s11.62,5.55,20.63-.32l-7.73,10.94Z"/><path class="cls-11" d="M449,204.69l-.95-6.57h-9.68l-1,6.72a3,3,0,0,1-2.94,2.53c-5.43,0-9.68.3-9.68,1.91,0,2.43,10,5.4,18.87,5.4s15.65-3.1,15.65-5.53c0-1.6-2.28-2.08-7.27-1.93A3,3,0,0,1,449,204.69Z"/><path class="cls-12" d="M438.27,198.8l-.71,4.94a11.08,11.08,0,0,0,5.26,1.52,11.84,11.84,0,0,0,6-1.82l-.69-4.79a17.76,17.76,0,0,1-5.19.78A17.49,17.49,0,0,1,438.27,198.8Z"/><path class="cls-13" d="M456.73,207.56c-18,8.39-25.61.64-30.2.43-1.64-.08-1.63,11-3.69,22.43-2.72,15.1-7.42,35.65-3.21,42.54,8,13.09,45.89,15.72,47.23,0,.92-10.88-1.68-29.56-5.19-45C459.2,217.11,459.45,206.29,456.73,207.56Z"/><path class="cls-34" d="M414.26,273.57c9,7.64,12.36,5.75,12.36,5.75s7.19-3.51,8.39-2.74h0a16.16,16.16,0,0,1-9.23-6.49c-3.22-4.7-4.51-7.17-7.44-11.46"/><path class="cls-11" d="M458.8,184.64a16.76,16.76,0,1,1-33.52,0c0-9.25,7.51-23,16.76-23S458.8,175.39,458.8,184.64Z"/><path class="cls-21" d="M442.5,197a16.75,16.75,0,0,1-16.75-16.59,21.78,21.78,0,0,0-.47,4.27,16.76,16.76,0,1,0,33.52,0c0-.18,0-.37,0-.56A16.75,16.75,0,0,1,442.5,197Z"/><path class="cls-35" d="M446.13,160.13c5,.13,12.52,2.34,12.2,7.38-.19,2.84-1.29,6.31-4.2,10.32-8.65,11.9-18,5.67-22,17.59s-21.24,12.66-21.24,12.66,1.38-22.26,13.78-38.39C424.67,169.69,430.47,159.7,446.13,160.13Z"/><path class="cls-11" d="M456.49,170c-.14,5.32-5.31,8.59-13.81,9.25s-15.58-4-15.44-9.35,6.81-8.77,14.75-8.56S456.63,164.7,456.49,170Z"/><path class="cls-22" d="M457.16,179.12s3.09-4.26,4.92-.48-.51,7.84-2.24,8.2-2.92-1.72-2.92-1.72"/><path class="cls-11" d="M457.14,178.65s3.09-4.26,4.92-.48-.51,7.84-2.24,8.21-2.92-1.73-2.92-1.73"/><path class="cls-11" d="M457.14,178.65s3.09-4.26,4.92-.48-.51,7.84-2.24,8.21-2.92-1.73-2.92-1.73"/><path class="cls-22" d="M427.82,181.27s-3.39-4-4.94-.12,1.08,7.78,2.83,8,2.78-1.93,2.78-1.93"/><path class="cls-11" d="M427.8,180.8s-3.39-4-4.94-.12,1.08,7.78,2.84,8,2.78-1.93,2.78-1.93"/><path class="cls-11" d="M427.8,180.8s-3.39-4-4.94-.12,1.08,7.78,2.84,8,2.78-1.93,2.78-1.93"/><path class="cls-32" d="M416.29,272.35c12.76,7.07,35.63,26.26,47.54,39.41,5.43,6,8.58,10.7,7.49,12.47-4,6.39-53.41-15.33-72-25.62s-23.7-20.06-19-28.58S397.71,262.06,416.29,272.35Z"/><path class="cls-32" d="M472.12,318.26a8.22,8.22,0,0,1-1.18,6.1l-4.36-5.84L467,316S472,316.26,472.12,318.26Z"/><g class="cls-28"><path class="cls-32" d="M411.37,269.8c-13.5-6.58-23.35-7.4-28.63-2.74C388.64,264.21,398.37,265,411.37,269.8Z"/><path class="cls-36" d="M399.89,298.77l-.94-.38.38.22c18.58,10.29,68,32,72,25.62.82-1.33,1.18-6.09-.56-7.25C455.1,316.39,415.65,304.82,399.89,298.77Z"/></g><path class="cls-11" d="M430.22,288.26c-1.59-3.33-4.06-7.95-4.58-9.35-1.34-3.54-5.41-4.17-6.61-5l2.43-3.56c2,1.17,3.54,3.13,6.47,5.44,6.52,5.14,8.12,6.15,8.79,11C437.09,289.38,431.72,291.38,430.22,288.26Z"/><path class="cls-13" d="M411.49,249.78c2.25-2.18,10.57-10.87,11.11-13.26,1.44-6.42,3.57-12.29,3.4-21.08-.07-3.66.49-9-4.35-6-4.6,2.8-15,21.55-20.36,34.34-1.85,4.44-3.21,8.33-3.28,10.9a3.43,3.43,0,0,0,.93,2.44c.19.22,4.43,5.94,7.2,8.3a191.05,191.05,0,0,0,18.94,13.94l.33-.51c-1.8-1.34-2.81-2.26-2.81-2.26l3.09-2.89a19.92,19.92,0,0,0,2.05,1.52l.06-.09C420.29,264.87,416.29,255.16,411.49,249.78Z"/><path class="cls-13" d="M425.69,273.66l-3.09,2.89s1,.92,2.81,2.26l2.33-3.63A19.92,19.92,0,0,1,425.69,273.66Z"/><path class="cls-13" d="M420.26,210.54l5.74,4.9,3.61-6.53S425.6,206.29,420.26,210.54Z"/><path class="cls-25" d="M446.13,158.86c5,.14,12.52,2.35,12.2,7.39-.19,2.84-1.29,6.31-4.2,10.32-8.65,11.9-18,5.67-22,17.59s-21.24,12.65-21.24,12.65,1.38-22.25,13.78-38.38C424.67,168.43,430.47,158.44,446.13,158.86Z"/><path class="cls-37" d="M432.51,314.32c5.92-8.95,11.65-17.05,15.21-21.75,12.84-16.91,23.27-20.73,31-14.84s8.17,16-5.19,32.48A137.68,137.68,0,0,1,459.65,324"/><polygon class="cls-27" points="424.49 222.93 408.18 250.04 411.49 249.78 421.27 238.86 424.49 222.93"/><path class="cls-31" d="M476.89,308.86c-8.62,11.84-39,39-53.74,49.94-8.22,6.07-8.63-.66-4.36-10.91,6.87-16.46,24-44.52,31.41-55.33,12-17.55,22.18-21.88,30.23-16.39S489.4,291.7,476.89,308.86Z"/><path class="cls-32" d="M480.43,276.17c-8.05-5.49-18.26-1.16-30.23,16.39-4.82,7.07-13.82,21.5-21.4,35.25-.33.58-15.11,24.69-15.32,28.88-.15,2.9,4.59,6.45,8.9,2.78l1.2-1c14.91-11.11,44.77-37.89,53.31-49.62C489.4,291.7,488.49,281.66,480.43,276.17Z"/><path class="cls-33" d="M477.78,305.06c-10.65,12.37-46.32,39.54-64.37,50.92-2,4,6.07,5.88,9,3.49l1.2-1c14.91-11.11,44.77-37.89,53.31-49.62a65.59,65.59,0,0,0,7-11.73A88.18,88.18,0,0,1,477.78,305.06Z"/><g class="cls-20"><path class="cls-25" d="M448.21,163.24a8.3,8.3,0,0,1,.72,5.21,11.85,11.85,0,0,1-2.18,4.93c-2.09,3-5.19,5.05-8.1,6.88a60.52,60.52,0,0,0-8.34,6.1,16.75,16.75,0,0,0-3.22,3.92,8.49,8.49,0,0,0-1.18,4.93,8.22,8.22,0,0,1,.52-5.25,15.61,15.61,0,0,1,3.06-4.42,44.59,44.59,0,0,1,8.39-6.48c1.49-.94,3-1.83,4.32-2.85a21.83,21.83,0,0,0,3.7-3.48,12.32,12.32,0,0,0,2.38-4.42A8.6,8.6,0,0,0,448.21,163.24Z"/></g><g class="cls-20"><path class="cls-25" d="M430.17,178.73c-2.56,3-5.48,5.67-7.89,8.66a21.72,21.72,0,0,0-3.07,4.76,9.58,9.58,0,0,0-.81,5.57,7.9,7.9,0,0,1-.24-6,16.61,16.61,0,0,1,3-5.27A40,40,0,0,1,430.17,178.73Z"/></g><path class="cls-11" d="M464.48,197.61l7.06,44.65,13.19,15.54s2.27-1.12,1.64-11.93c-.56-9.61-18.23-49.45-18.23-49.45l-3,.38A.71.71,0,0,0,464.48,197.61Z"/><path class="cls-13" d="M464.36,204.87l13.15,55.55,7.22-2.62s2.27-1.12,1.64-11.93c-.56-9.61-12.49-43.28-12.49-43.28Z"/><path class="cls-13" d="M457.66,207.63s5.08-1.23,12.3,17c3.07,7.75,15.15,33,15.15,33s-3.47,6.45-18.31,0S457.66,207.63,457.66,207.63Z"/><path class="cls-27" d="M459.17,214.84s4.73,16.82,9.16,30.08c4.68,14,15.77,13.39,15.77,13.39s-7,5.85-17.93-2C462.17,253.41,459.17,214.84,459.17,214.84Z"/><path class="cls-8" d="M460.92,175.26h0a1.19,1.19,0,0,1,1.24,1l1.53,13.82c.08.65-.12,1.24-.76,1.33l-.51.08a1.19,1.19,0,0,1-1.36-1.07l-1.27-13.9A1.19,1.19,0,0,1,460.92,175.26Z"/><path class="cls-11" d="M463.09,185.58c2.52,1.54.71,1.24.53,2.5s-.81,3,.23,5.1c.52,1.07.51,3.24.64,4.59.1,1,4.18.06,3.89-.81-.67-2,.1-4.5,0-7.69-.22-6.29-3.54-8.48-5.5-9.55S460.58,184,463.09,185.58Z"/><path class="cls-27" d="M468.15,221.42l3.39,20.84-7.84-29.95S466.35,218.25,468.15,221.42Z"/><path class="cls-9" d="M805.18,286a18,18,0,0,0-5.22-7.72,7.06,7.06,0,0,0-1.91-1.33l-.13-.07-.2-.11-9.36-5.14a2.47,2.47,0,0,0,.73-2.31c-.25-1-.49-2-.73-3.06.53-.74,1-1.46,1.47-2.15l.34-.53c.44-.68.86-1.35,1.23-2l.09-.17q.51-.86.93-1.65l.26-.5c.28-.53.54-1.05.76-1.53l.16-.36c.17-.37.32-.73.46-1.07l.21-.5.07-.18a6.15,6.15,0,0,0,1-3.62h0a5.44,5.44,0,0,0,0-1.21h0a2.81,2.81,0,0,0,0-.29c-.05-1.22-.13-2.47-.24-3.74-.26-3.19-.68-6.52-1.16-9.64-.29-1.88-.6-3.69-.91-5.35-.62-3.33-1.24-6.09-1.71-7.7-.36-1.26-.75-2.47-1.16-3.64-.13-.37-.26-.73-.4-1.09-.28-.79-.58-1.56-.88-2.3-.16-.4-.32-.78-.49-1.16-.29-.69-.6-1.36-.9-2l-.51-1.05c-.34-.68-.68-1.34-1-2-.15-.26-.29-.54-.43-.79-.5-.87-1-1.69-1.5-2.47-.08-.12-.16-.22-.23-.34-.44-.65-.87-1.28-1.31-1.87-.18-.25-.36-.47-.54-.71-.34-.43-.67-.85-1-1.24l-.6-.7c-.32-.35-.63-.69-.94-1s-.4-.42-.6-.61-.65-.61-1-.89l-.52-.45c-.46-.39-.91-.73-1.35-1l-.53-.33c-.27-.17-.54-.34-.79-.48l-.6-.29-.63-.28-.57-.19-.54-.13c-.18,0-.36-.07-.52-.08l-.1,0,0,0a2.67,2.67,0,0,0-1.61.33c-1.56-.1-3.55-.06-5.79,0a3.24,3.24,0,0,1-3.33-2.75l-.31-2.07.08,0-.39-2.29c4.51-2.37,8.06-6.5,11.93-10.5a12.15,12.15,0,0,0,1.93-2.36,5,5,0,0,0,.62-2.28,7.57,7.57,0,0,0,1.71-5.35,7.42,7.42,0,0,0-.74-3.2,4.18,4.18,0,0,0-.7-1c.07-.37.15-.74.23-1.11A15.48,15.48,0,0,0,777,154.5c-.07-.52-.17-1-.28-1.49,0,.05,0,.09,0,.13a17.79,17.79,0,0,0-.78-2.56c-.17-1.16-.37-2-.58-2h-.33c-1.28-2.52-2.75-4.66-3.15-6.85-.69-3.68-5.27-5.1-11.21-3.68s-6.25-.85-12.48-2.83-7.94,4-11.26,7.65-2.61,4.26-5.39,6.8a3.74,3.74,0,0,0-.74,2.39s0,.08,0,.12a1.36,1.36,0,0,0,0,.2,29,29,0,0,0,.34,5,17.93,17.93,0,0,1-.4,4.37c-.44,1.88-1.08,3.68-.73,5.64.3,1.7,1.26,3.22,1.67,4.9.5,2,.74,4.19,2,5.91a12.43,12.43,0,0,0,4.2,3.14,27.85,27.85,0,0,0,2.12,2.41c.15.15.29.3.45.45l.15.16c.14.13.29.27.46.4a18.85,18.85,0,0,0,1.92,1.52l.21.12a29.66,29.66,0,0,0,2.18,3.59,5,5,0,0,0,3.23,1.85l0,.3,0,0-.37,2.62a3.24,3.24,0,0,1-3.19,2.79c-2.21,0-4.24.07-5.91.22l-.65-.11a3.66,3.66,0,0,0-3-.27A19.13,19.13,0,0,0,725.25,205c-5.29,7.62-13.06,27.62-15.68,41.9-1.33,2.85-1.28,6.48-.92,9.27,0,.27,0,.54.07.79a13.5,13.5,0,0,0,.26,1.82c.2,1.11.38,1.81.38,1.81s.34,3,12.71,6.68c1.45.43,2.91.8,4.37,1.13,0,.09-.05.19-.08.28l-8.33,6.6a20.92,20.92,0,0,0-5.58,4.33A19.7,19.7,0,0,0,708.67,293c1,14,12.81,80,18.21,91.45a5.31,5.31,0,0,0,.87,1.32c0,1.14.08,2.28.06,3.39-.25,14.92-6,32.48,7.81,31.35,9.57-.78,3.27-20.94,2.18-29.74-.21-1.71-.35-3.44-.46-5.15.89-.51,1.72-4.79,2.46-11.29,2.83-19.5,3.5-53,3.42-68.31,0-2.68,0-5.17,0-7.4,4.26-2.56,8.8-4.63,13.47-4.85,4.21.1,9,1.63,13.86,6,0,0,0-.07.06-.17h0a1.1,1.1,0,0,0-.07.17l-.23,3.32c-.64,7.25-1.29,16.16-1.86,25.32-.2,2.62-.38,5.76-.55,9.15-1.13,19.73-1.84,38.51-1.43,42.49-4.28,14.29-14.53,29.66-1,32.29,9.43,1.83,8.81-19.28,10.14-28.05.28-1.84.64-3.68,1-5.49l.06-.12c4.16-9.46,26.75-70.9,29.1-83.58A17.37,17.37,0,0,0,805.18,286Z"/><path class="cls-18" d="M774.12,264.08l17.59,9.66c5.58,2.58,7,13.32,6.11,16.74-3.85,14.93-19,18.65-34.74,4.93-18.11-15.81-36.14,12.48-46.14,10.27-15.26-3.37-11.37-9.93-13.85-14.36-1.48-2.65,1-12.33,2.91-14.69l14-11.12Z"/><path class="cls-8" d="M787.53,273.43c8,2.08,14.75,10.69,7,32.29s-18.12,50.19-18.12,50.19a129.84,129.84,0,0,0-7.09,25.23c-1.34,8.76-.72,29.87-10.14,28-13.58-2.63-3.32-18,.95-32.29,2.15-7.17,2.82-15.58,3-24.05C763.68,330.83,757.35,265.62,787.53,273.43Z"/><g class="cls-28"><path class="cls-8" d="M763.18,352.84a117.94,117.94,0,0,1-1.51,17.56,116.55,116.55,0,0,0,2.44-17.93c1.45-20.76,1.18-79.42,26-78.09l-4.29-1.44C757.09,269.06,763.68,330.83,763.18,352.84Z"/></g><path class="cls-8" d="M719.86,279c8.26-.25,17.09,6.31,15.5,29.18s-3.89,53.22-3.89,53.22a130,130,0,0,0,0,26.21c1.08,8.8,7.38,29-2.19,29.74-13.78,1.13-8.06-16.43-7.8-31.34.13-7.5-1.51-15.77-3.61-24C712.41,340.72,695.4,279.75,719.86,279Z"/><path class="cls-18" d="M766.11,283.58c-2.51,7.33-6.81,84.72-5.94,93.31.43,4.18,8,3.87,10.29-1.37,4.15-9.45,26.75-70.9,29.1-83.58a17.28,17.28,0,0,0-.72-9.15c-2.09-5.71-7.36-13.26-20.37-10.29A17.07,17.07,0,0,0,766.11,283.58Z"/><path class="cls-18" d="M736.44,284.34c1.66,7.57-1.17,95.71-5.44,98.13-3,1.67-8.41,3.21-10.46-1.17-5.39-11.49-17.22-77.42-18.21-91.45a19.66,19.66,0,0,1,3.79-13.41c3.4-4.42,20.36-13.12,30.56-9.43C742.15,269,735.2,278.65,736.44,284.34Z"/><path class="cls-24" d="M777.75,282.19a37.86,37.86,0,0,1-15.32-8.43,26.6,26.6,0,0,1-12.3,2.73,25.77,25.77,0,0,1-13-3.15c-5.07,6.26-15.81,8-16.34,8,0,0,15.67,78.57,6.24,101.56,0,0,3.47,1,4-.45,5.89-16,6.24-80,5.73-87.07,1.94-1.82,14.55-10.46,27.51,1.22a29.85,29.85,0,0,1,2-4.14,43.47,43.47,0,0,0-2,4.14s-1.36,20-1.93,26.61c-1.15,13.45-2,47.17-2,47.17Z"/><path class="cls-15" d="M769.06,145.43c.7,0,1.17,8.42,1.12,9.19-.32,4.48-2.24,8.76-2,13.3.13,2.06.75,4.27-.34,6.17a11.79,11.79,0,0,1-1.93,2.36c-6.17,6.39-11.52,13.1-21.3,12.46-2.18-.15-4.19-.35-5.54-2.12-1.92-2.5-2.56-5.34-5.27-7.29-2.14-1.53-4.84-2.39-6.43-4.49-1.29-1.73-1.54-3.89-2-5.92-.41-1.68-1.37-3.2-1.67-4.9-.35-1.95.3-3.76.74-5.64.73-3.14.3-6.37,0-9.53C724.14,145.17,769,145.43,769.06,145.43Z"/><path class="cls-38" d="M765.58,153.79s.85,8.07,1.46,9.44-.3,8-1.46,10.56-5.22,7.82-7.91,8.94-1.51,2.49-6.17,4.84c-5.52,2.8-10.18.87-10.58-1.33s-4.72-3.23-6.59-5.08a24.53,24.53,0,0,1-5.19-7c-1.49-3.11-2.36-10.24-2.36-10.24s-5.65-3.17,1.77-8.64,10.09-6.58,10.09-6.58h16.21Z"/><path class="cls-11" d="M754.64,191.35l-1.07-7.19-10.6.06-.16,1.15-.86,6.21a3.25,3.25,0,0,1-3.2,2.79c-6,0-10.59.38-10.58,2.14,0,2.66,11,5.85,20.68,5.8s18.57-3.95,18.55-6.61c0-1.76-4-1.79-9.43-1.6A3.24,3.24,0,0,1,754.64,191.35Z"/><path class="cls-12" d="M753.57,184.31l.84,4.94c-1.77,1-3.13,1.08-6.52,1.51-1.95.25-3.65-.65-5.6-1.81l.69-4.79a15.18,15.18,0,0,0,4.8.77A26.82,26.82,0,0,0,753.57,184.31Z"/><path class="cls-32" d="M773.85,208.08c-.27-2-3.86-17-11.07-13.63-19.68,9.28-24-.08-32.15-.08-1.8,0-4.84,3.11-5,4.39,0,0-.14,50.33-5.62,66.75-5.31,15.92,65.26,10.64,62.73.6C777.54,245.39,773.85,208.08,773.85,208.08Z"/><path class="cls-32" d="M734.93,203.68c.8-4.84-1.22-10.85-5.73-9.46a19.19,19.19,0,0,0-10.29,7.61c-7.47,10.77-19.9,46.25-15.77,55.39s20.18-18.42,23.2-26C733.48,213.2,734.24,207.8,734.93,203.68Z"/><path class="cls-39" d="M731.15,164s-3.73-4.38-5.4-.1,1.22,8.51,3.14,8.76,3-2.13,3-2.13"/><path class="cls-11" d="M731.13,163.47s-3.73-4.38-5.4-.1,1.22,8.51,3.14,8.76,3-2.13,3-2.13"/><path class="cls-11" d="M731.13,163.47s-3.73-4.38-5.4-.1,1.22,8.51,3.14,8.76,3-2.13,3-2.13"/><path class="cls-40" d="M731.13,163.47s-3.73-4.38-5.4-.1,1.22,8.51,3.14,8.76,3-2.13,3-2.13"/><path class="cls-11" d="M765.58,167.73a18.52,18.52,0,0,1-37,0c0-10.23,8.29-25.42,18.52-25.42S765.58,157.5,765.58,167.73Z"/><path class="cls-39" d="M764.11,164.32s3.36-4.67,5.38-.55-.51,8.58-2.41,9-3.19-1.87-3.19-1.87"/><path class="cls-11" d="M764.09,163.81s3.36-4.67,5.38-.55-.51,8.58-2.41,9-3.2-1.87-3.2-1.87"/><path class="cls-11" d="M764.09,163.81s3.36-4.67,5.38-.55-.51,8.58-2.41,9-3.2-1.87-3.2-1.87"/><path class="cls-15" d="M770.7,151.33c-.74-5.57-4.44-9.07-5.12-12.75s-5.27-5.1-11.2-3.69-6.26-.85-12.49-2.83-7.93,4-11.26,7.65-2.6,4.26-5.39,6.8c-1.73,1.59,0,10.12,0,10.12s-1.08,6.17,3.87,9.46c3,2-.86-2.32,3.38-7.49,2.8-3.39,3.61-2.94,7.9.5s6.89-3.72,12.33-.87c2.59,1.36,6-1.38,6.91-1.85,2.27-1.2,3.77,1.16,4.22,3.7l.39,3.12a1.53,1.53,0,0,0,2.62.88A15.07,15.07,0,0,0,770.7,151.33Z"/><g class="cls-20"><path class="cls-15" d="M763.56,158.45c-.46-2.53-2-4.89-4.23-3.69-.89.47-4.32,3.21-6.91,1.85-5.43-2.85-8,4.3-12.33.86s-5.1-3.89-7.89-.49c-4.25,5.16-.37,9.5-3.39,7.49a8.62,8.62,0,0,1-3.6-5.13,9,9,0,0,0,3.9,6.75c3,2-.86-2.32,3.38-7.49,2.8-3.39,3.61-2.94,7.9.5s6.89-3.72,12.33-.87c2.59,1.36,6-1.38,6.91-1.85,2-1.06,3.41.66,4,2.82Z"/><path class="cls-15" d="M770.7,151.33a13.55,13.55,0,0,0-.29-1.49,15,15,0,0,1-3.85,12.62,1.52,1.52,0,0,1-2.46-.39l.14,1.13a1.53,1.53,0,0,0,2.62.88A15.07,15.07,0,0,0,770.7,151.33Z"/></g><g class="cls-28"><path class="cls-15" d="M744,148.94a2.86,2.86,0,0,1-1.47,1.12,3.63,3.63,0,0,1-1.91-.06c-1.2-.29-2.32-.91-3.38-1.25a5,5,0,0,0-3.28,0,12.79,12.79,0,0,0-3.06,1.77,8.05,8.05,0,0,1,2.82-2.34,5,5,0,0,1,3.76-.23c1.23.43,2.21,1,3.32,1.43a3.53,3.53,0,0,0,1.65.27A3.1,3.1,0,0,0,744,148.94Z"/></g><path class="cls-33" d="M723.66,243.73s17.65,13.73,19.43,13.85,2.87-.29,4.45,0,5-4.33,5-4.33l-.23,7-15.58,4.21-13.89-13.73Z"/><g class="cls-28"><path class="cls-15" d="M753.71,142.08a2.71,2.71,0,0,1-1.39,1.06,3.54,3.54,0,0,1-1.8-.06c-1.13-.26-2.19-.86-3.18-1.18a4.74,4.74,0,0,0-3.11,0,11.9,11.9,0,0,0-2.89,1.67,7.78,7.78,0,0,1,2.67-2.21,4.79,4.79,0,0,1,3.55-.21c1.16.41,2.08,1,3.13,1.35a3.15,3.15,0,0,0,1.56.25A2.88,2.88,0,0,0,753.71,142.08Z"/></g><g class="cls-28"><path class="cls-15" d="M760.8,149.9a2.71,2.71,0,0,1-1.39,1.06,3.65,3.65,0,0,1-1.8-.06c-1.13-.27-2.19-.86-3.19-1.18a4.71,4.71,0,0,0-3.1,0,11.72,11.72,0,0,0-2.89,1.67,7.67,7.67,0,0,1,2.67-2.21,4.74,4.74,0,0,1,3.55-.21c1.16.41,2.08,1,3.13,1.34a3.14,3.14,0,0,0,1.55.26A3,3,0,0,0,760.8,149.9Z"/></g><path class="cls-21" d="M747.07,182.48a18.51,18.51,0,0,1-18.42-16.68c-.06.66-.1,1.3-.1,1.93a18.52,18.52,0,0,0,37,0c0-.63,0-1.27-.09-1.93A18.52,18.52,0,0,1,747.07,182.48Z"/><path class="cls-32" d="M785.26,254.56c1.84-1.49,4-1.45,3.76-7.26a143.41,143.41,0,0,0-4-26.43c-6.28-21.77-19.28-30.17-21.81-26.2a19.14,19.14,0,0,0-2.89,12.47c1.3,13.05,13.45,46.05,22.52,50.32,1.13.54-.7-.92,0-1.48"/><path class="cls-11" d="M761.57,274.08s-3.54,3.64-6.51,4.09-5.28.5-6.48,1.6-2.89,2.38-6.7,2.33-1.88,5.65.92,6.52,4.64,1.52,11.43-2.83a63.07,63.07,0,0,0,11-8.84Z"/><path class="cls-32" d="M780.86,240.9c-10-2.26-9.72,14-23.16,35.93l3.35,4.37s13.46-7.55,20.93-18.07c4.93-6.95,6.51-11.51,7-13.95a5.07,5.07,0,0,0-1-4.21A12.28,12.28,0,0,0,780.86,240.9Z"/><path class="cls-11" d="M752.13,279s-3.72-1.05-6.38,0-3.9,2.14-1.59,2.19,6.26,0,6.26,0Z"/><path class="cls-33" d="M767.23,216l7.41,25.71s-4.4,8.81-6.74,15C765.9,262.05,767.23,216,767.23,216Z"/><path class="cls-33" d="M759.26,259.1c-3.32,1.87-5.42,1.57-7,1.17s-3.62.66-6.45,1.69a8.1,8.1,0,0,1-3,.35l0-.26c-22.3-12.81-29.85-27.22-37.54-20.46-5.23,4.6-2.29,15.83-2.29,15.83s.34,3,12.72,6.68S742,267.49,742,267.49l0-.32a66.8,66.8,0,0,0,8.13,1.08c8,.58,9.4-.92,11.39-3S762.55,257.25,759.26,259.1Z"/><path class="cls-11" d="M753.62,259.83s-1.47-.75-.69-2.75a10.3,10.3,0,0,0-.08-1.77s-4.39,2.65-6.31,4.88c-1.14,1.33,2.87.94,2.87.94l2-1.3Z"/><path class="cls-8" d="M765.08,269.73l-9,.18a2.82,2.82,0,0,1-2.89-2.68l-1.1-20.5a2.83,2.83,0,0,1,2.77-3l10.46-.22a2.84,2.84,0,0,1,2.89,2.9l-.4,20.53A2.83,2.83,0,0,1,765.08,269.73Z"/><path class="cls-30" d="M759.12,265.19a2.85,2.85,0,0,1-2.9-2.69l-1-18.77h-.31a2.82,2.82,0,0,0-2.77,3l1.1,20.51a2.82,2.82,0,0,0,2.89,2.68l9-.18a2.83,2.83,0,0,0,2.78-2.78l0-1.94Z"/><path class="cls-11" d="M738.36,260.17s4.89,1.34,7.69.22,4.8-2.23,6.4-1.89,3.69.59,6.95-1.39,4.48,3.93,2.51,6.1-3.23,3.66-11.29,3.34a62.52,62.52,0,0,1-13.94-2.07Z"/><path class="cls-32" d="M704.93,241.32c7.46-7,15.47,7.16,38.16,19.26l-.68,5.46s-13.87.74-26.35-2.55-12.92-6.27-12.92-6.27S699.84,246.08,704.93,241.32Z"/><g class="cls-20"><path class="cls-32" d="M761.05,281.2s13.46-7.55,20.93-18.07a48.8,48.8,0,0,0,6-10.7,6.21,6.21,0,0,0,1-3.62,4.9,4.9,0,0,0,0-1.21v-.3a143.41,143.41,0,0,0-4-26.43c-5.2-18-15-26.88-19.66-27.14,9.3,3.79,11.19,11.51,15.92,24.17,4.23,11.31,4.13,29.24,3.62,30a49.88,49.88,0,0,1-5.52,11c-7,10.87-20.54,19.17-20.54,19.17"/></g><path class="cls-33" d="M726.37,211l-2,24.45-4.61,8.6a9.4,9.4,0,0,0-7.66,3.29Z"/><path class="cls-9" d="M648.5,171.2c-.42-.58-.82-1.1-1.23-1.61l-.36-.43c-.3-.37-.6-.72-.9-1l-.32-.36c-.35-.37-.7-.72-1-1-.17-.17-.35-.32-.52-.48l-.5-.43c-.2-.18-.41-.35-.61-.51h0a16.4,16.4,0,0,0-1.59-1.1h0c-3.79-2.32-6.28-1.61-6.28-1.61h-.19a13.53,13.53,0,0,1,1.4-3.94c2.48-3.92,4,2,9.94.29s.94-9.81-.48-13.93a4,4,0,0,1-.19-1.09,9.53,9.53,0,0,0,3.41-7.73,11.94,11.94,0,0,0-.21-2.18,21.85,21.85,0,0,0,1.43-7.41,11.65,11.65,0,0,0-.14-1.73.68.68,0,0,0,.14-.31c0-13.72-13.11-18.07-18.46-15.53-.88.41-2.16,1.14-3.7,1.74a19.8,19.8,0,0,0-8.53.2,11.46,11.46,0,0,1-3-1.78c-6.33-5.18-13.52-4.56-18.14-1s-4,10.68-.32,13.64c-.32,3.93.12,7.61,2.22,9.55a11,11,0,0,0-1.05,4.8,9.57,9.57,0,0,0,3.33,7.68,23.14,23.14,0,0,0-1,4.44,11.78,11.78,0,0,0,3.09,8.62l-26.32-21.8L560.17,91.63H558.3c.6-1.63,1.25-3.35,1.79-4.66a6,6,0,0,0,.22-.68,8.54,8.54,0,0,0,.87-3.23,18.85,18.85,0,0,0,0-4.68c-.1-.61-.48-2-1.24-1.3a10.3,10.3,0,0,0-1.29-3.55c-1.32-1.67-9.9.44-11.45,3-2.68,4.36.23,10.5,2,15.14H547.5l16,54.23L600,185.66l0-.1,1.12,1.22c-4.56,21.81-6.52,48.12-7.27,61.4l-.2,0,.12,1.51c-.14,2.66-.23,4.67-.28,5.86a3.71,3.71,0,0,0-.13.61l.12-.27c0,.58,0,.9,0,.9l.9.17,10.79,136.8h1c-6.82,4.74-10.74,10.83-8.78,13.73s9.36,1.49,16.45-3.29c4.84-3.26,8.29-7.23,9.35-10.36l1.37.06-2.82-81.19,5.63,81.05h.72c-6.82,4.74-10.74,10.83-8.78,13.73s9.36,1.49,16.45-3.29c4.88-3.29,8.35-7.3,9.38-10.44h.59l8.17-139.14c.49-.23,1-.44,1.45-.68,0,0,1.17-1.81.6-13.35,1.69-3.43,3.2-6.81,4.47-9.9.78-1.88,1.46-3.65,2-5.27.2-.54.38-1.06.55-1.56.52-1.5.93-2.83,1.21-3.93a14,14,0,0,0,.49-2.57C665,211,656,181.56,648.5,171.2Zm-36.35-8.87a6.53,6.53,0,0,0-1,.06l0-.06-1.48-1.22A20.57,20.57,0,0,0,612.15,162.33Z"/><path class="cls-11" d="M551.58,94.9s2.2-6.24,3.6-9.67-.12-11.78-1.44-13.45-9.9.45-11.45,3c-3.37,5.51,2.12,13.83,3.14,18.41"/><path class="cls-13" d="M637.42,116.29s7.91.32,7.91,8.56-5.86,14.29-4.44,18.41,6.42,12.19.48,13.92-7.46-4.2-9.94-.28-.73,12.11-8.94,7.48-15.54-13.13-11-23,23.44-25,23.44-25Z"/><path class="cls-13" d="M596.66,105.35s-7.39,19.75-.84,24.64,1.49,10.45.84,16.57c-.84,7.93,9.37,16.87,20.68,15.41s9.1-25.08,9.1-25.08Z"/><path class="cls-41" d="M606.3,112.54c-2.56,3-6.77,7.63-6.09,15.39"/><ellipse class="cls-8" cx="600.72" cy="134.44" rx="6.34" ry="8.72"/><ellipse class="cls-30" cx="602.47" cy="134.44" rx="6.34" ry="8.72"/><polygon class="cls-15" points="606.28 160.59 573.43 133.38 555.26 89.89 542.59 89.89 558.57 144.11 596.37 185.18 606.28 160.59"/><path class="cls-42" d="M603.24,135.58s-4.06,5,.12,11.21,8.16,7.94,8.08,18.18S616,178.86,616,178.86"/><path class="cls-11" d="M556.27,76.64c-.14-.91-.93-3.56-2.67,1.56s-1.13,8.17-1.13,8.17,3.26.54,3.8-5.06A18.78,18.78,0,0,0,556.27,76.64Z"/><path class="cls-12" d="M552.69,79.72a4.08,4.08,0,0,0-2.36,2,5,5,0,0,0-.65,3.84C549.84,86.75,546.63,81.07,552.69,79.72Z"/><path class="cls-8" d="M623.56,391.68c-7.08,4.78-11.2,11.06-9.2,14s9.36,1.49,16.45-3.29,11.2-11.06,9.2-14S630.64,386.9,623.56,391.68Z"/><path class="cls-8" d="M601.64,391.68c-7.08,4.78-11.2,11.06-9.2,14s9.36,1.49,16.45-3.29,11.2-11.06,9.2-14S608.72,386.9,601.64,391.68Z"/><polygon class="cls-32" points="588.78 246.4 600.26 391.98 618.27 391.98 615.53 251.6 588.78 246.4"/><polygon class="cls-32" points="622.42 391.98 640.78 391.98 649.06 250.82 612.32 246.4 613.72 266.71 615.72 295.42 622.42 391.98"/><polygon class="cls-11" points="612.7 164.65 623.75 164.38 622.08 147.36 613.79 147.57 612.7 164.65"/><path class="cls-12" d="M623.46,161.35c-1.06.21-6.71-4.27-10.44-3.77l.26-4.79,9.35,1.29Z"/><path class="cls-15" d="M630.22,160.83c-3.36.24-10,.4-22.67-.24-1.9-.1-4.08.56-4.83,2.3C590.66,191,588.57,255,588.57,255s40.78,7.84,61.83-2.86c0,0,3.34-5.16-4-54-2.8-18.58-8.07-29.66-11-34.63A5.55,5.55,0,0,0,630.22,160.83Z"/><path class="cls-11" d="M599.61,133.77c.25,11.62,9.87,20.31,19.07,20.59,11.62.34,19.68-9.87,19.43-21.49S629.4,112,617.78,112.28,599.36,122.15,599.61,133.77Z"/><path class="cls-43" d="M612.13,150.88c11.62-.25,18.34-10,18.1-21.63-.15-6.8-2.67-12.71-7.05-16.41,8.56,2.12,15,10.09,15.22,19.88.25,11.62-7.81,21.37-19.43,21.62-4.87.11-7.78-1.46-11.17-4.17A11.59,11.59,0,0,0,612.13,150.88Z"/><path class="cls-22" d="M636,132.43s3.82-4.52,5.56-.13-1.21,8.75-3.19,9-3.13-2.17-3.13-2.17"/><path class="cls-11" d="M636,131.91s3.82-4.53,5.56-.14-1.21,8.76-3.19,9-3.13-2.18-3.13-2.18"/><path class="cls-11" d="M636,131.91s3.82-4.53,5.56-.14-1.21,8.76-3.19,9-3.13-2.18-3.13-2.18"/><polygon class="cls-44" points="630.8 184.69 636.14 217.73 623.33 256.73 648.95 216.75 630.8 184.69"/><path class="cls-15" d="M630.22,160.83s5.89-1.74,13.37,8.62,16.5,39.78,16.17,46.13S643.72,260,630,266.71a19.11,19.11,0,0,1-8.69-5.68s16.46-35.43,22.27-45.45a149.15,149.15,0,0,1-12.49-26.64C627.66,178.69,625.91,167.8,630.22,160.83Z"/><line class="cls-45" x1="613.97" y1="391.98" x2="622.42" y2="391.98"/><polygon class="cls-33" points="607.09 266.51 615.72 279.92 619.61 392.11 614.59 391.92 607.09 266.51"/><path class="cls-22" d="M636.05,132.29s3.81-4.52,5.56-.13-1.22,8.75-3.19,9-3.13-2.17-3.13-2.17"/><path class="cls-11" d="M636.06,131.77s3.82-4.53,5.56-.14-1.21,8.76-3.19,9-3.13-2.18-3.13-2.18"/><path class="cls-11" d="M636.06,131.77s3.82-4.53,5.56-.14-1.21,8.76-3.19,9-3.13-2.18-3.13-2.18"/><path class="cls-46" d="M636.06,131.77s3.82-4.53,5.56-.14-1.21,8.76-3.19,9-3.13-2.18-3.13-2.18"/><path class="cls-33" d="M629.22,275.29s-2.73,5.86-12.58-5.35C616.64,269.94,623.1,276.63,629.22,275.29Z"/><path class="cls-16" d="M643.59,169.45a25.42,25.42,0,0,0-7.09-7,32.74,32.74,0,0,1,3.11,3.74c7.48,10.36,16.5,39.77,16.17,46.12s-16,44.45-29.74,51.13a15.4,15.4,0,0,1-4.35-2,19,19,0,0,0,8.32,5.31c13.71-6.68,29.41-44.78,29.75-51.13S651.07,179.81,643.59,169.45Z"/><path class="cls-13" d="M626.87,107.27c-2.66,1.27-8.87,5.34-15.2.17s-13.52-4.56-18.14-1c-5.89,4.55-3.33,15,3.47,15s9.41-3.25,12.84.1c6.38,6.23,11.14.3,15.42,2.43s4,11.47,6.28,13.28c5.72,4.58,6.76-8.89,6.76-8.89s7-4.53,7-5.54C645.35,109.09,632.22,104.74,626.87,107.27Z"/><ellipse class="cls-8" cx="637.77" cy="134.44" rx="6.34" ry="8.72"/><ellipse class="cls-30" cx="637.77" cy="134.44" rx="6.34" ry="8.72"/><path class="cls-47" d="M637.77,135.58s2.6,6.28-6.34,13.75-19.22,22.91-13.64,36.95-9.63,21.18-6,32.16-22.51,28.91-23.27,35.94"/><path class="cls-8" d="M644,133.65c0,4.17-2.45,7.55-5.49,7.55s-5.49-3.38-5.49-7.55,2.46-7.55,5.49-7.55S644,129.48,644,133.65Z"/><polygon class="cls-44" points="562.35 140.03 543.78 89.89 542.59 89.89 558.57 144.11 595.11 183.91 596.89 173.69 562.35 140.03"/><path class="cls-41" d="M639.21,132.24c1.63-23.28-23.05-30-34.17-17.17"/><path class="cls-13" d="M611.67,107.44c-6.33-5.18-13.52-4.56-18.14-1-5.89,4.55-3.33,15,3.47,15s9.41-3.25,12.84.1c6.38,6.23,11.14.3,15.42,2.43S618,112.61,611.67,107.44Z"/><path class="cls-42" d="M603.36,146.79c4.19,6.22,8.16,7.94,8.08,18.18S616,178.86,616,178.86"/><polygon class="cls-8" points="845.08 77.53 227.96 77.53 232.06 71.91 845.08 71.91 845.08 77.53"/><path class="cls-30" d="M550.64,71.77a.43.43,0,0,1-.28.14c-.29,0-.45-.46-.72-.64a1.14,1.14,0,0,0-1-.17,2.36,2.36,0,0,0-1,.67.92.92,0,0,1-.31.28c-.4.18-.55-.37-.81-.54a1.32,1.32,0,0,0-1.06-.16,2.35,2.35,0,0,0-.82.45c-.23.18-.5.51-.82.4s-.4-.5-.66-.65a1.29,1.29,0,0,0-1.22-.06,3.65,3.65,0,0,0-1.31,1.17,4.45,4.45,0,0,1,1.09,2.73c.29,2.88,3.48,2.49,3.64,1,.93,1.48,3.1,1,3.23-.18.93,1.48,3.1,1,3.23-.18,1.08,1.71,3.84.82,3.13-.79a6.69,6.69,0,0,1-.45-1.85,8.23,8.23,0,0,0-1-1.86C552.65,70.53,551.42,71,550.64,71.77Z"/><path class="cls-11" d="M550.76,70.88a.41.41,0,0,1-.27.15c-.3,0-.46-.46-.72-.65a1.14,1.14,0,0,0-1-.16,2.2,2.2,0,0,0-1,.66.83.83,0,0,1-.31.28c-.4.19-.55-.37-.81-.53a1.32,1.32,0,0,0-1.06-.17,2.71,2.71,0,0,0-.83.46c-.22.18-.5.51-.81.4s-.41-.5-.67-.66a1.27,1.27,0,0,0-1.21,0,3.74,3.74,0,0,0-1.32,1.16,4.51,4.51,0,0,1,1.1,2.73c.29,2.88,3.48,2.5,3.63,1,.94,1.47,3.11,1,3.23-.18.94,1.47,3.11,1,3.24-.18,1.08,1.71,3.83.81,3.13-.79a6.69,6.69,0,0,1-.45-1.85,7.89,7.89,0,0,0-1-1.86C552.78,69.65,551.55,70.16,550.76,70.88Z"/><path class="cls-33" d="M719.46,244.07l.26,0,2.81-5.24c.65-1.18,1.25-2.3,1.79-3.34v0c-.2,2.8-.42,5.59-.68,8.3l-.45,3.67c-1.43-1.08-2.75-2.09-4-3Z"/></g></g></g></g></svg>